<?xml version="1.0" encoding="utf-8"?>
<!-- Generator: Adobe Illustrator 19.2.1, SVG Export Plug-In . SVG Version: 6.00 Build 0)  -->
<svg version="1.1" id="Capa_1" xmlns="http://www.w3.org/2000/svg" xmlns:xlink="http://www.w3.org/1999/xlink" x="0px" y="0px"
	 viewBox="0 0 19.5 24.8" style="enable-background:new 0 0 19.5 24.8;" xml:space="preserve">
<style type="text/css">
	.st0{fill:#D44D4E;}
	.st1{opacity:0.2;}
	.st2{fill:#FFFFFF;}
</style>
<path class="st0" d="M0.4,9.4v13.1c0,0.9,0.8,1.7,1.7,1.7h15.4c0.9,0,1.7-0.8,1.7-1.7V9.4H0.4z"/>
<path class="st0" d="M19.2,9.9V6.7l-6.3-6.3H2.1C1.2,0.3,0.4,1.1,0.4,2v7.9H19.2z"/>
<path class="st1" d="M12.9,0.4l-0.6,5.8c0,0.9,0.8,1.7,1.7,1.7l5.2-1.2L12.9,0.4z"/>
<path class="st2" d="M12.9,0.3V5c0,0.9,0.8,1.7,1.7,1.7h4.6L12.9,0.3z"/>
<g>
	<g>
		<path class="st2" d="M3,4.1C3.2,4,3.4,4,3.7,4s0.6,0.1,0.7,0.2s0.2,0.3,0.2,0.6c0,0.2-0.1,0.4-0.2,0.6C4.3,5.6,4,5.7,3.6,5.7
			c-0.1,0-0.2,0-0.3,0v1.1H3V4.1z M3.3,5.4c0.1,0,0.2,0,0.3,0c0.4,0,0.7-0.2,0.7-0.6S4.1,4.3,3.7,4.3c-0.2,0-0.3,0-0.3,0L3.3,5.4
			L3.3,5.4z"/>
		<path class="st2" d="M5.1,4.1C5.3,4,5.6,4,5.8,4c0.5,0,0.8,0.1,1.1,0.3c0.2,0.2,0.4,0.5,0.4,1c0,0.4-0.1,0.8-0.4,1
			C6.7,6.6,6.2,6.7,5.7,6.7c-0.2,0-0.5,0-0.6,0V4.1z M5.4,6.4c0.1,0,0.2,0,0.3,0c0.7,0,1.1-0.4,1.1-1.1c0-0.6-0.4-1-1.1-1
			c-0.2,0-0.3,0-0.4,0L5.4,6.4L5.4,6.4z"/>
		<path class="st2" d="M7.7,4h1.4v0.3h-1v0.9h1v0.3h-1v1.2H7.7V4z"/>
	</g>
</g>
<rect x="0.4" y="9.4" class="st2" width="18.8" height="0.5"/>
<rect x="3.6" y="12.9" class="st2" width="7.4" height="1.6"/>
<rect x="3.6" y="18.7" class="st2" width="7.4" height="1.6"/>
<rect x="3.6" y="16.6" class="st2" width="7.4" height="1.6"/>
<rect x="3.6" y="15" class="st2" width="12.6" height="1.6"/>
<rect x="11.5" y="17.1" class="st2" width="5.4" height="1.6"/>
<rect x="11.5" y="19.2" class="st2" width="5.4" height="1.6"/>
</svg>
